<svg xmlns="http://www.w3.org/2000/svg" fill="none" viewBox="0 0 500 500"><rect width="500" height="500" fill="#4358D8" rx="250"/><path fill="#fff" fill-rule="evenodd" d="M145.837 88.43c-2.844-4.92-1.157-11.21 3.769-14.05s11.225-1.155 14.069 3.764l21.871 37.83c.284.051.569.115.853.191l50.328 13.47c5.495 1.47 8.755 7.111 7.284 12.598-1.472 5.487-7.12 8.743-12.614 7.272l-45.44-12.162-12.164 45.346c-1.472 5.487-7.119 8.743-12.614 7.272-5.494-1.47-8.755-7.111-7.283-12.598l13.482-50.261c.084-.311.181-.615.29-.911l-21.831-37.762Zm106.675 164.135c19.848-11.444 26.648-36.791 15.187-56.616-11.461-19.824-36.843-26.617-56.691-15.173-19.849 11.444-26.648 36.792-15.187 56.616 11.461 19.824 36.842 26.617 56.691 15.173Zm-10.733-18.166c9.82-5.662 13.184-18.203 7.513-28.011-5.67-9.808-18.227-13.169-28.047-7.507-9.82 5.662-13.184 18.203-7.514 28.011 5.67 9.808 18.228 13.169 28.048 7.507Zm-60.333 11.463c11.461 19.824 4.662 45.172-15.187 56.616-19.848 11.444-45.23 4.65-56.691-15.174-11.461-19.824-4.662-45.172 15.187-56.616 19.849-11.444 45.23-4.65 56.691 15.174Zm-18.567 10.082c5.67 9.808 2.306 22.349-7.514 28.011-9.82 5.662-22.378 2.301-28.048-7.507-5.67-9.808-2.306-22.349 7.514-28.011 9.82-5.661 22.377-2.3 28.048 7.507Zm96.797 102.183c19.849-11.444 26.648-36.792 15.187-56.616-11.461-19.824-36.842-26.617-56.691-15.173-19.849 11.444-26.648 36.792-15.187 56.616 11.461 19.824 36.843 26.617 56.691 15.173Zm-11.053-18.635c9.82-5.662 13.184-18.203 7.514-28.011-5.67-9.808-18.228-13.169-28.048-7.507-9.82 5.662-13.184 18.203-7.513 28.011 5.67 9.808 18.227 13.169 28.047 7.507Zm112.784 17.334c11.461 19.824 4.662 45.171-15.187 56.615-19.849 11.444-45.23 4.651-56.691-15.173-11.461-19.824-4.662-45.172 15.187-56.616 19.849-11.444 45.23-4.65 56.691 15.174Zm-18.428 10.307c5.67 9.808 2.306 22.348-7.514 28.01-9.82 5.662-22.378 2.301-28.048-7.507-5.67-9.808-2.306-22.348 7.514-28.01 9.82-5.662 22.377-2.301 28.048 7.507Zm3.266-58.918c19.849-11.444 26.648-36.792 15.187-56.616-11.461-19.824-36.843-26.618-56.691-15.174-19.849 11.444-26.648 36.792-15.187 56.616 11.461 19.824 36.842 26.618 56.691 15.174Zm-10.352-18.279c9.82-5.662 13.184-18.203 7.513-28.011-5.67-9.808-18.227-13.169-28.047-7.507-9.82 5.662-13.184 18.203-7.514 28.011 5.67 9.807 18.228 13.169 28.048 7.507Zm18.375-143.899c11.461 19.824 4.661 45.172-15.187 56.616-19.849 11.444-45.231 4.651-56.692-15.173-11.461-19.825-4.661-45.172 15.187-56.616 19.849-11.444 45.231-4.651 56.692 15.173Zm-18.562 9.941c5.67 9.808 2.306 22.348-7.514 28.01-9.82 5.662-22.377 2.301-28.047-7.507-5.671-9.808-2.307-22.348 7.513-28.01 9.82-5.662 22.378-2.301 28.048 7.507Z" clip-rule="evenodd"/></svg>
